<?xml version="1.0" encoding="utf-8"?>
<!-- Generator: Adobe Illustrator 19.2.0, SVG Export Plug-In . SVG Version: 6.00 Build 0)  -->
<svg version="1.1" xmlns="http://www.w3.org/2000/svg" xmlns:xlink="http://www.w3.org/1999/xlink" x="0px" y="0px"
	 viewBox="0 0 800 200" style="enable-background:new 0 0 800 200;" xml:space="preserve">
<style type="text/css">
	.st0{fill:#FFFFFF;}
	.st1{font-family:'Tahoma';}
	.st2{font-size:145px;}
	.st3{letter-spacing:9;}
	.st4{clip-path:url(#SVGID_2_);}
	.st5{clip-path:url(#SVGID_4_);}
</style>
<g id="Layer_3">
	<text transform="matrix(1 0 0 1 331.055 169.0496)" class="st0 st1 st2 st3">hunter</text>
</g>
<g id="Layer_1">
	<g>
		<g>
			<defs>
				<path id="SVGID_1_" d="M137.4,100v16.4c0,29.1-23.6,52.7-52.7,52.7H78H33.2V31H78h6.7c29.1,0,52.7,23.6,52.7,52.7V100z"/>
			</defs>
			<clipPath id="SVGID_2_">
				<use xlink:href="#SVGID_1_"  style="overflow:visible;"/>
			</clipPath>
			<g class="st4">
				
					<rect x="32.6" y="169.6" transform="matrix(-1 1.687347e-010 -1.687347e-010 -1 170.6239 351.8141)" class="st0" width="105.4" height="12.6"/>
				
					<rect x="32.6" y="93.7" transform="matrix(-1 1.687178e-010 -1.687178e-010 -1 170.6239 200.135)" class="st0" width="105.4" height="12.6"/>
				
					<rect x="32.6" y="131.7" transform="matrix(-1 1.687347e-010 -1.687347e-010 -1 170.6239 275.9745)" class="st0" width="105.4" height="12.6"/>
				
					<rect x="32.6" y="55.8" transform="matrix(-1 1.687178e-010 -1.687178e-010 -1 170.6239 124.1865)" class="st0" width="105.4" height="12.6"/>
				
					<rect x="32.6" y="17.8" transform="matrix(-1 1.686916e-010 -1.686916e-010 -1 170.6239 48.2379)" class="st0" width="105.4" height="12.6"/>
			</g>
		</g>
		<g>
			<defs>
				<path id="SVGID_3_" d="M276.9,134.5c0,19.1-14.4,34.5-33.7,34.5h-21.4h-50.2V31h50.2h19c19.3,0,33.7,15.5,33.7,34.5v0
					c0,19.1-13.9,31-33.7,34.5h2.5C261.5,103.8,276.9,115.5,276.9,134.5L276.9,134.5z"/>
			</defs>
			<clipPath id="SVGID_4_">
				<use xlink:href="#SVGID_3_"  style="overflow:visible;"/>
			</clipPath>
			<g class="st5">
				
					<rect x="170.2" y="93" transform="matrix(-2.088764e-010 -1 1 -2.088764e-010 143.7867 343.3415)" class="st0" width="146.7" height="13.6"/>
				
					<rect x="129.4" y="93" transform="matrix(-2.089199e-010 -1 1 -2.089199e-010 102.976 302.5308)" class="st0" width="146.7" height="13.6"/>
				
					<rect x="211" y="93" transform="matrix(-2.089137e-010 -1 1 -2.089137e-010 184.5974 384.1522)" class="st0" width="146.7" height="13.6"/>
			</g>
		</g>
		<path class="st0" d="M0,0v200h310.1V0H0z M137.4,100v16.4c0,29.1-23.6,52.7-52.7,52.7H78H33.2V31H78h6.7
			c29.1,0,52.7,23.6,52.7,52.7V100z M276.9,134.5c0,19.1-14.4,34.5-33.7,34.5h-21.4h-50.2V31h50.2h19c19.3,0,33.7,15.5,33.7,34.5v0
			c0,19.1-13.9,31-33.7,34.5h2.5C261.5,103.8,276.9,115.5,276.9,134.5L276.9,134.5z"/>
	</g>
</g>
</svg>
